{"title":"Beneath(2013)1080p.H264.AAC.Raven","uid":11228394,"size":1347696808,"categoryP":"video","categoryS":"hd___movies","magnet":"?xt=urn:btih:8398aa222df29eb029773ae7e717d2be9dc3c5d3&amp;dn=Beneath%282013%291080p.H264.AAC.Raven&amp;tr=udp%3A%2F%2Ftracker.openbittorrent.com%3A80&amp;tr=udp%3A%2F%2Fopen.demonii.com%3A1337&amp;tr=udp%3A%2F%2Ftracker.coppersurfer.tk%3A6969&amp;tr=udp%3A%2F%2Fexodus.desync.com%3A6969","seeders":1,"leechers":0,"uploader":"Raven1969","files":-1,"time":1413483429,"description":"Beneath(2013)1080p.H264.AAC.Raven.mp4\n\n\n\n\n\nEnglish, Spanish, Danish, Italian, Persian and Indonesian  subs included.\n\n\n\nScreen images:\n\n\n &lt;a href=&quot;\nhttp://i.imgur.com/dUoHFKm.png&quot; rel=&quot;nofollow&quot; target=&quot;_NEW&quot;&gt;\nhttp://i.imgur.com/dUoHFKm.png&lt;/a&gt;\n\n &lt;a href=&quot;\nhttp://i.imgur.com/W5WOPEb.png&quot; rel=&quot;nofollow&quot; target=&quot;_NEW&quot;&gt;\nhttp://i.imgur.com/W5WOPEb.png&lt;/a&gt;\n\n &lt;a href=&quot;\nhttp://i.imgur.com/eWuTLF7.png&quot; rel=&quot;nofollow&quot; target=&quot;_NEW&quot;&gt;\nhttp://i.imgur.com/eWuTLF7.png&lt;/a&gt;\n\n &lt;a href=&quot;\nhttp://i.imgur.com/SO3TWf0.png&quot; rel=&quot;nofollow&quot; target=&quot;_NEW&quot;&gt;\nhttp://i.imgur.com/SO3TWf0.png&lt;/a&gt;\n\n &lt;a href=&quot;\nhttp://i.imgur.com/6d0dd5d.png&quot; rel=&quot;nofollow&quot; target=&quot;_NEW&quot;&gt;\nhttp://i.imgur.com/6d0dd5d.png&lt;/a&gt;\n\n &lt;a href=&quot;\nhttp://i.imgur.com/E64Gu0c.png&quot; rel=&quot;nofollow&quot; target=&quot;_NEW&quot;&gt;\nhttp://i.imgur.com/E64Gu0c.png&lt;/a&gt;\n\n\n\n\nStoryline:\n\nA crew of coal miners becomes trapped 600 feet below ground after a disastrous collapse. As the air grows more toxic and time runs out, they slowly descend into madness and begin to turn on one another. Inspired by true events.\n\n\n\nGeneral\nFormat                                   : MPEG-4\nFormat profile                           : Base Media\nCodec ID                                 : isom\nFile size                                : 1.25 GiB\nDuration                                 : 1h 29mn\nOverall bit rate mode                    : Variable\nOverall bit rate                         : 1 995 Kbps\nEncoded date                             : UTC 2014-10-16 14:08:52\nTagged date                              : UTC 2014-10-16 14:08:52\n\nVideo\nID                                       : 1\nFormat                                   : AVC\nFormat/Info                              : Advanced Video Codec\nFormat profile                           : &lt;a class=&quot;__cf_email__&quot; href=&quot;/cdn-cgi/l/email-protection&quot; data-cfemail=&quot;a9e1c0cec1e9e59d8799&quot;&gt;[email&amp;#160;protected]&lt;/a&gt;&lt;script cf-hash='f9e31' type=&quot;text/javascript&quot;&gt;\n/* &lt;![CDATA[ */!function(){try{var t=&quot;currentScript&quot;in document?document.currentScript:function(){for(var t=document.getElementsByTagName(&quot;script&quot;),e=t.length;e--;)if(t[e].getAttribute(&quot;cf-hash&quot;))return t[e]}();if(t&amp;&amp;t.previousSibling){var e,r,n,i,c=t.previousSibling,a=c.getAttribute(&quot;data-cfemail&quot;);if(a){for(e=&quot;&quot;,r=parseInt(a.substr(0,2),16),n=2;a.length-n;n+=2)i=parseInt(a.substr(n,2),16)^r,e+=String.fromCharCode(i);e=document.createTextNode(e),c.parentNode.replaceChild(e,c)}}}catch(u){}}();/* ]]&gt; */&lt;/script&gt;\nFormat settings, CABAC                   : Yes\nFormat settings, ReFrames                : 5 frames\nCodec ID                                 : avc1\nCodec ID/Info                            : Advanced Video Coding\nDuration                                 : 1h 29mn\nBit rate                                 : 1 900 Kbps\nMaximum bit rate                         : 22.2 Mbps\nWidth                                    : 1 920 pixels\nHeight                                   : 808 pixels\nDisplay aspect ratio                     : 2.40:1\nFrame rate mode                          : Constant\nFrame rate                               : 23.976 fps\nColor space                              : YUV\nChroma subsampling                       : 4:2:0\nBit depth                                : 8 bits\nScan type                                : Progressive\nBits/(Pixel*Frame)                       : 0.051\nStream size                              : 1.19 GiB (95%)\nWriting library                          : x264 core 132 \nEncoded date                             : UTC 2014-10-16 14:08:52\nTagged date                              : UTC 2014-10-16 14:09:14\n\nAudio\nID                                       : 2\nFormat                                   : AAC\nFormat/Info                              : Advanced Audio Codec\nFormat profile                           : LC\nCodec ID                                 : 40\nDuration                                 : 1h 29mn\nBit rate mode                            : Variable\nBit rate                                 : 92.0 Kbps\nMaximum bit rate                         : 188 Kbps\nChannel(s)                               : 2 channels\nChannel positions                        : Front: L R\nSampling rate                            : 48.0 KHz\nCompression mode                         : Lossy\nStream size                              : 59.0 MiB (5%)\nEncoded date                             : UTC 2014-10-16 12:34:18\nTagged date                              : UTC 2014-10-16 14:09:14\n\n\n\nPLEASE  SEED FOR AS LONG AS POSSIBLE TO KEEP THE TORRENT ALIVE :-)","torrent":{"xt":"urn:btih:8398aa222df29eb029773ae7e717d2be9dc3c5d3","amp;dn":"Beneath%282013%291080p.H264.AAC.Raven","amp;tr":["udp%3A%2F%2Ftracker.openbittorrent.com%3A80","udp%3A%2F%2Fopen.demonii.com%3A1337","udp%3A%2F%2Ftracker.coppersurfer.tk%3A6969","udp%3A%2F%2Fexodus.desync.com%3A6969"],"infoHash":"8398aa222df29eb029773ae7e717d2be9dc3c5d3","infoHashBuffer":{"type":"Buffer","data":[131,152,170,34,45,242,158,176,41,119,58,231,231,23,210,190,157,195,197,211]},"announce":[],"urlList":[]}}